<svg width="24" height="22" viewBox="0 0 24 22" fill="none" xmlns="http://www.w3.org/2000/svg">
<g clip-path="url(#clip0_329_1217)">
<g filter="url(#filter0_d_329_1217)">
<path d="M12.0331 3.19696C8.45092 3.19696 5.55373 5.85272 5.55373 9.13635C5.55373 13.5909 12.0331 20.1667 12.0331 20.1667C12.0331 20.1667 18.5124 13.5909 18.5124 9.13635C18.5124 5.85272 15.6152 3.19696 12.0331 3.19696ZM12.0331 11.2576C10.7557 11.2576 9.71901 10.3073 9.71901 9.13635C9.71901 7.96545 10.7557 7.01514 12.0331 7.01514C13.3104 7.01514 14.3471 7.96545 14.3471 9.13635C14.3471 10.3073 13.3104 11.2576 12.0331 11.2576Z" fill="#E60F40"/>
<path d="M12.0331 20.1667L11.3208 20.8685L12.0331 21.5914L12.7454 20.8685L12.0331 20.1667ZM12.0331 20.1667C12.7454 20.8685 12.7455 20.8684 12.7457 20.8682L12.7461 20.8677L12.7475 20.8664L12.7519 20.8618L12.7678 20.8456L12.8259 20.7856C12.8761 20.7335 12.9486 20.6577 13.0402 20.5603C13.2233 20.3654 13.4831 20.0838 13.7942 19.7325C14.4153 19.0309 15.2455 18.0459 16.0781 16.9147C16.9084 15.7867 17.7554 14.494 18.3984 13.1782C19.0342 11.8774 19.5124 10.4706 19.5124 9.13635C19.5124 5.22031 16.0838 2.19696 12.0331 2.19696C7.98232 2.19696 4.55373 5.22031 4.55373 9.13635C4.55373 10.4706 5.03194 11.8774 5.66768 13.1782C6.31076 14.494 7.15777 15.7867 7.98803 16.9147C8.82059 18.0459 9.65083 19.0309 10.272 19.7325C10.583 20.0838 10.8429 20.3654 11.026 20.5603C11.1176 20.6577 11.19 20.7335 11.2402 20.7856L11.2984 20.8456L11.3142 20.8618L11.3186 20.8664L11.32 20.8677L11.3204 20.8682C11.3206 20.8684 11.3208 20.8685 12.0331 20.1667ZM12.0331 10.2576C11.2243 10.2576 10.719 9.67485 10.719 9.13635C10.719 8.59786 11.2243 8.01514 12.0331 8.01514C12.8418 8.01514 13.3471 8.59786 13.3471 9.13635C13.3471 9.67485 12.8418 10.2576 12.0331 10.2576Z" stroke="white" stroke-width="2"/>
</g>
</g>
<defs>
<filter id="filter0_d_329_1217" x="-4.44627" y="-2.80304" width="32.9587" height="37.8192" filterUnits="userSpaceOnUse" color-interpolation-filters="sRGB">
<feFlood flood-opacity="0" result="BackgroundImageFix"/>
<feColorMatrix in="SourceAlpha" type="matrix" values="0 0 0 0 0 0 0 0 0 0 0 0 0 0 0 0 0 0 127 0" result="hardAlpha"/>
<feOffset dy="4"/>
<feGaussianBlur stdDeviation="4"/>
<feColorMatrix type="matrix" values="0 0 0 0 0 0 0 0 0 0 0 0 0 0 0 0 0 0 0.25 0"/>
<feBlend mode="normal" in2="BackgroundImageFix" result="effect1_dropShadow_329_1217"/>
<feBlend mode="normal" in="SourceGraphic" in2="effect1_dropShadow_329_1217" result="shape"/>
</filter>
<clipPath id="clip0_329_1217">
<rect width="24" height="22" fill="white"/>
</clipPath>
</defs>
</svg>
